<?xml version="1.0" encoding="UTF-8"?>
<svg width="29px" height="33px" viewBox="0 0 29 33" version="1.1" xmlns="http://www.w3.org/2000/svg" xmlns:xlink="http://www.w3.org/1999/xlink">
    <title>Shape</title>
    <g id="RenswapMVP" stroke="none" stroke-width="1" fill="none" fill-rule="evenodd">
        <g id="OpenMenus" transform="translate(-1182.000000, -445.000000)" fill="#FFD149" fill-rule="nonzero">
            <g id="OverlayLinks" transform="translate(1162.000000, 114.500000)">
                <g id="Socials" transform="translate(20.000000, 199.500000)">
                    <path d="M19.2395667,146.675 C19.2395667,147.6815 18.4933,148.5065 17.5488667,148.5065 C16.6208667,148.5065 15.8591333,147.6815 15.8591333,146.675 C15.8591333,145.6685 16.6044333,144.8435 17.5488667,144.8435 C18.4933,144.8435 19.2395667,145.6685 19.2395667,146.675 Z M11.5004333,144.8435 C10.556,144.8435 9.8107,145.6685 9.8107,146.675 C9.8107,147.6815 10.5724333,148.5065 11.5004333,148.5065 C12.4448667,148.5065 13.1911333,147.6815 13.1911333,146.675 C13.2075667,145.6685 12.4448667,144.8435 11.5004333,144.8435 Z M29,134.399 L29,164 C24.8249667,160.326518 26.1599333,161.542568 21.3111333,157.0535 L22.1888667,160.106 L3.39686667,160.106 C1.52443333,160.106 0,158.588 0,156.707 L0,134.399 C0,132.518 1.52443333,131 3.39686667,131 L25.6031333,131 C27.4755667,131 29,132.518 29,134.399 Z M24.2768667,150.041 C24.2768667,144.728 21.8911333,140.4215 21.8911333,140.4215 C19.5044333,138.6395 17.2347,138.688863 17.2347,138.688863 L17.0027,138.953 C19.8195667,139.811 21.1284333,141.0485 21.1284333,141.0485 C17.1921667,138.900297 12.5686,138.899909 8.7493,140.57 C8.13643333,140.8505 7.772,141.0485 7.772,141.0485 C7.772,141.0485 9.14756667,139.745 12.1307,138.887 L11.9644333,138.688863 C11.9644333,138.688863 9.6947,138.6395 7.308,140.4215 C7.308,140.4215 4.9213,144.728 4.9213,150.041 C4.9213,150.041 6.3133,152.4335 9.976,152.549 C9.976,152.549 10.5888667,151.8065 11.0867,151.1795 C8.9813,150.5525 8.1867,149.2325 8.1867,149.2325 C8.4303,149.402353 8.83243333,149.622676 8.8653,149.645 C11.6628333,151.204638 15.6358333,151.715653 19.2067,150.2225 C19.7867,150.008 20.4324333,149.6945 21.112,149.249 C21.112,149.249 20.2835667,150.602 18.1124333,151.2125 C18.6093,151.8395 19.2067,152.549 19.2067,152.549 C22.8684333,152.4335 24.2768667,150.041 24.2768667,150.041 Z" id="Shape"></path>
                </g>
            </g>
        </g>
    </g>
</svg>