<?xml version="1.0" encoding="UTF-8"?>
<svg width="12px" height="12px" viewBox="0 0 12 12" version="1.1" xmlns="http://www.w3.org/2000/svg" xmlns:xlink="http://www.w3.org/1999/xlink">
    <title>Shape</title>
    <g id="RenswapMVP" stroke="none" stroke-width="1" fill="none" fill-rule="evenodd">
        <g id="OpenMenus" transform="translate(-1185.000000, -257.000000)" fill="#DDDDDD" fill-rule="nonzero" stroke="#DDDDDD" stroke-width="0.525">
            <g id="OverlayLinks" transform="translate(1162.000000, 114.500000)">
                <g id="UpperLinks" transform="translate(19.000000, 23.287568)">
                    <path d="M15.0470177,120.290171 L15.3952951,120.324163 L15.7268201,129.788037 C13.631849,129.540231 11.853189,129.844079 10.1677425,130.613821 C8.29341104,129.895978 6.62693439,129.586842 5.05310403,129.696761 L4.71723073,129.726733 L4.27363165,120.370448 C6.32439461,120.119112 8.15336384,120.419524 9.89236182,121.201352 C11.7101983,120.475336 13.4163871,120.162983 15.0470177,120.290171 Z M14.9201693,121.317832 C13.5450014,121.212489 12.1036227,121.459076 10.7375,122.04034 L10.7375,122.04034 L10.7375,129.385035 L11.0797263,129.250407 C12.454797,128.738984 13.8996355,128.553216 15.2625,128.714886 L15.2625,128.714886 L15.2625,121.35151 Z M8.91947764,121.887361 C7.54177372,121.361997 6.1006255,121.172748 4.7375,121.336867 L4.7375,121.336867 L4.7375,128.716604 L5.05680661,128.683397 C5.27265045,128.666108 5.49334261,128.658251 5.71229966,128.658251 C6.90335404,128.658251 8.09909135,128.902519 9.2625,129.385194 L9.2625,129.385194 L9.2625,122.025694 Z" id="Shape"></path>
                </g>
            </g>
        </g>
    </g>
</svg>