<?xml version="1.0" encoding="UTF-8"?>
<svg width="14px" height="14px" viewBox="0 0 14 14" version="1.1" xmlns="http://www.w3.org/2000/svg" xmlns:xlink="http://www.w3.org/1999/xlink">
    <title>Shape</title>
    <g id="RenswapMVP" stroke="none" stroke-width="1" fill="none" fill-rule="evenodd">
        <g id="OpenMenus" transform="translate(-1183.000000, -346.000000)" fill="#BDCBDA" fill-rule="nonzero">
            <g id="OverlayLinks" transform="translate(1162.000000, 114.500000)">
                <g id="Socials" transform="translate(20.000000, 199.500000)">
                    <path d="M13.5,32 L2.5,32 C1.67186,32 1,32.6718789 1,33.5 L1,44.5 C1,45.3281398 1.67186,46 2.5,46 L13.5,46 C14.32814,46 15,45.3281398 15,44.5 L15,33.5 C15,32.6718789 14.32814,32 13.5,32 Z M9.66562667,43.990626 C9.40312667,44.037526 9.30624667,43.874986 9.30624667,43.7406326 C9.30624667,43.5718859 9.3125,42.7093922 9.3125,42.0125187 C9.3125,41.5249918 9.15000667,41.2156384 8.95937333,41.053145 C10.1156333,40.9249983 11.33438,40.7656316 11.33438,38.7687643 C11.33438,38.1999907 11.13124,37.9156506 10.8,37.5500172 C10.8531067,37.4156171 11.0312333,36.8625236 10.7468933,36.1437634 C10.31252,36.0093633 9.31875333,36.7031102 9.31875333,36.7031102 C8.90626667,36.5875169 8.45938667,36.5281102 8.01876,36.5281102 C7.57813333,36.5281102 7.13125333,36.5875169 6.71876667,36.7031102 C6.71876667,36.7031102 5.725,36.0093633 5.29062667,36.1437634 C5.00624,36.859397 5.18124,37.4124905 5.23752,37.5500172 C4.90623333,37.9156506 4.74999333,38.1999907 4.74999333,38.7687643 C4.74999333,40.7562516 5.91563333,40.9249983 7.07189333,41.053145 C6.92186,41.1874984 6.78750667,41.4187318 6.74060667,41.7500186 C6.44376,41.884372 5.68435333,42.115652 5.23126667,41.3156451 C4.94688,40.8218649 4.43438667,40.7812649 4.43438667,40.7812649 C3.92814667,40.7750116 4.39999333,41.0999984 4.39999333,41.0999984 C4.73748667,41.2562384 4.97502,41.856232 4.97502,41.856232 C5.27812,42.7843856 6.72814667,42.4718588 6.72814667,42.4718588 C6.72814667,42.9062323 6.73435333,43.6124859 6.73435333,43.7406326 C6.73435333,43.874986 6.64064667,44.037526 6.37502,43.990626 C4.31249333,43.3000058 2.86876667,41.3374851 2.86876667,39.043771 C2.86876667,36.1749834 5.06252,33.9968767 7.93126,33.9968767 C10.8,33.9968767 13.1249852,36.1749834 13.1249852,39.043771 C13.1281067,41.3374851 11.7281067,43.3031324 9.66562667,43.990626 Z M6.6,42.0812587 C6.54064,42.0937654 6.48436,42.068752 6.47810667,42.028152 C6.47185333,41.981252 6.5125,41.940652 6.57186,41.9281453 C6.63126667,41.921892 6.6875,41.9468586 6.69375333,41.9875053 C6.70313333,42.028152 6.66248667,42.068752 6.6,42.0812587 Z M6.30310667,42.0531187 C6.30310667,42.0937654 6.25625333,42.128112 6.19376667,42.128112 C6.12498,42.1343654 6.07812667,42.1000187 6.07812667,42.0531187 C6.07812667,42.0125187 6.12498,41.9781253 6.18751333,41.9781253 C6.24687333,41.971872 6.30310667,42.0062653 6.30310667,42.0531187 Z M5.87498667,42.018772 C5.86248,42.059372 5.79999333,42.078132 5.74688667,42.059372 C5.68748,42.0468653 5.64688,42.000012 5.65938667,41.9593653 C5.67189333,41.9187653 5.73438,41.9000053 5.78748667,41.912512 C5.85002,41.931272 5.89062,41.9781253 5.87498667,42.018772 Z M5.49064,41.8500253 C5.4625,41.884372 5.40314,41.8781186 5.35624,41.8312653 C5.30938667,41.7906186 5.29688,41.7312586 5.32814667,41.7031186 C5.35624,41.6687719 5.41564667,41.6750252 5.4625,41.7218786 C5.50314667,41.7625253 5.51873333,41.8250119 5.49064,41.8500253 Z M5.20625333,41.5656385 C5.17811333,41.5843985 5.12500667,41.5656385 5.09061333,41.5187385 C5.05626667,41.4718852 5.05626667,41.4187785 5.09061333,41.3968918 C5.12500667,41.3687518 5.17811333,41.3906385 5.20625333,41.4374918 C5.24064667,41.4843918 5.24064667,41.5406252 5.20625333,41.5656385 Z M5.00311333,41.2624918 C4.97502,41.2906318 4.92812,41.2749984 4.89377333,41.2437317 C4.85938,41.2031317 4.85312667,41.1562317 4.88126667,41.1343917 C4.90936,41.1062517 4.95626,41.121885 4.99060667,41.1531517 C5.025,41.1937517 5.03125333,41.2406517 5.00311333,41.2624918 Z M4.79376667,41.0312583 C4.78126,41.0593984 4.74061333,41.0656517 4.70626667,41.043765 C4.66562,41.025005 4.64686,40.9906117 4.65936667,40.9625183 C4.67187333,40.9437583 4.70626667,40.9343783 4.74686667,40.9500117 C4.78751333,40.9718983 4.80622667,41.006245 4.79376667,41.0312583 Z" id="Shape"></path>
                </g>
            </g>
        </g>
    </g>
</svg>