<?xml version="1.0" encoding="UTF-8"?>
<svg width="13px" height="14px" viewBox="0 0 13 14" version="1.1" xmlns="http://www.w3.org/2000/svg" xmlns:xlink="http://www.w3.org/1999/xlink">
    <title>Group</title>
    <g id="RenswapMVP" stroke="none" stroke-width="1" fill="none" fill-rule="evenodd">
        <g id="OpenMenus" transform="translate(-1184.000000, -226.000000)" fill-rule="nonzero">
            <g id="OverlayLinks" transform="translate(1162.000000, 114.500000)">
                <g id="UpperLinks" transform="translate(19.000000, 23.287568)">
                    <g id="Group" transform="translate(3.000000, 88.212432)">
                        <path d="M12.8571562,12.7014493 L12.2000745,12.7014493 L12.2000745,11.8750988 C12.2000745,11.8013175 12.142937,11.7570487 12.0857994,11.7570487 L0.901126904,11.7570487 C0.829704985,11.7570487 0.786851834,11.8160738 0.786851834,11.8750988 L0.786851834,12.7014493 L0.129770178,12.7014493 C0.0583482589,12.7014493 0.0154951074,12.7604743 0.0154951074,12.8194993 L0.0154951074,13.8819499 C0.0154951074,13.9557312 0.0726326427,14 0.129770178,14 L12.8857249,14 C12.9571468,14 13,13.940975 13,13.8819499 L13,12.8194993 C12.9857156,12.7604743 12.9285781,12.7014493 12.8571562,12.7014493 Z" id="Path" fill="#FFFFFF"></path>
                        <path d="M0.229760865,4.68880105 L12.7428811,4.68880105 C12.8714405,4.68880105 12.9857156,4.58550725 12.9857156,4.43794466 L12.9857156,4.01001318 C12.9857156,3.89196311 12.9142937,3.77391304 12.814303,3.71488801 L6.68630235,0.0553359684 C6.5577429,-0.0184453228 6.41489906,-0.0184453228 6.2863396,0.0553359684 L0.172623329,3.71488801 C0.0726326427,3.77391304 0.00121072357,3.87720685 0.00121072357,4.01001318 L0.00121072357,4.43794466 C-0.0130736602,4.58550725 0.10120141,4.68880105 0.229760865,4.68880105 Z" id="Shape" fill="#DDDDDD"></path>
                        <path d="M2.80094995,5.61844532 C2.87237187,5.61844532 2.91522502,5.55942029 2.91522502,5.50039526 L2.91522502,5.11673254 C2.91522502,5.04295125 2.85808749,4.99868248 2.80094995,4.99868248 L1.52963979,4.99868248 C1.45821787,4.99868248 1.41536472,5.05770751 1.41536472,5.11673254 L1.41536472,5.50039526 C1.41536472,5.57417655 1.47250226,5.61844532 1.52963979,5.61844532 L1.68676801,5.61844532 L1.68676801,10.8274045 L1.52963979,10.8274045 C1.45821787,10.8274045 1.41536472,10.8864295 1.41536472,10.9454545 L1.41536472,11.3291173 C1.41536472,11.4028986 1.47250226,11.4471673 1.52963979,11.4471673 L2.80094995,11.4471673 C2.87237187,11.4471673 2.91522502,11.3881423 2.91522502,11.3291173 L2.91522502,10.9454545 C2.91522502,10.8716733 2.85808749,10.8274045 2.80094995,10.8274045 L2.64382173,10.8274045 L2.64382173,5.61844532 L2.80094995,5.61844532 L2.80094995,5.61844532 Z" id="Path" fill="#DDDDDD"></path>
                        <path d="M11.4287178,5.61844532 C11.5001397,5.61844532 11.5429929,5.55942029 11.5429929,5.50039526 L11.5429929,5.11673254 C11.5429929,5.04295125 11.4858553,4.99868248 11.4287178,4.99868248 L10.1574076,4.99868248 C10.0859857,4.99868248 10.0431325,5.05770751 10.0431325,5.11673254 L10.0431325,5.50039526 C10.0431325,5.57417655 10.1002701,5.61844532 10.1574076,5.61844532 L10.3145358,5.61844532 L10.3145358,10.8274045 L10.1574076,10.8274045 C10.0859857,10.8274045 10.0431325,10.8864295 10.0431325,10.9454545 L10.0431325,11.3291173 C10.0431325,11.4028986 10.1002701,11.4471673 10.1574076,11.4471673 L11.4287178,11.4471673 C11.5001397,11.4471673 11.5429929,11.3881423 11.5429929,11.3291173 L11.5429929,10.9454545 C11.5429929,10.8716733 11.4858553,10.8274045 11.4287178,10.8274045 L11.2715896,10.8274045 L11.2715896,5.61844532 L11.4287178,5.61844532 L11.4287178,5.61844532 Z" id="Path" fill="#DDDDDD"></path>
                        <path d="M9.27177582,5.61844532 C9.34319774,5.61844532 9.38605089,5.55942029 9.38605089,5.50039526 L9.38605089,5.11673254 C9.38605089,5.04295125 9.32891336,4.99868248 9.27177582,4.99868248 L8.00046566,4.99868248 C7.92904374,4.99868248 7.88619059,5.05770751 7.88619059,5.11673254 L7.88619059,5.50039526 C7.88619059,5.57417655 7.94332813,5.61844532 8.00046566,5.61844532 L8.15759388,5.61844532 L8.15759388,10.8274045 L8.00046566,10.8274045 C7.92904374,10.8274045 7.88619059,10.8864295 7.88619059,10.9454545 L7.88619059,11.3291173 C7.88619059,11.4028986 7.94332813,11.4471673 8.00046566,11.4471673 L9.27177582,11.4471673 C9.34319774,11.4471673 9.38605089,11.3881423 9.38605089,11.3291173 L9.38605089,10.9454545 C9.38605089,10.8716733 9.32891336,10.8274045 9.27177582,10.8274045 L9.1146476,10.8274045 L9.1146476,5.61844532 L9.27177582,5.61844532 L9.27177582,5.61844532 Z" id="Path" fill="#DDDDDD"></path>
                        <path d="M7.11483387,5.61844532 C7.18625579,5.61844532 7.22910894,5.55942029 7.22910894,5.50039526 L7.22910894,5.11673254 C7.22910894,5.04295125 7.1719714,4.99868248 7.11483387,4.99868248 L5.84352371,4.99868248 C5.77210179,4.99868248 5.72924864,5.05770751 5.72924864,5.11673254 L5.72924864,5.50039526 C5.72924864,5.57417655 5.78638617,5.61844532 5.84352371,5.61844532 L6.00065193,5.61844532 L6.00065193,10.8274045 L5.84352371,10.8274045 C5.77210179,10.8274045 5.72924864,10.8864295 5.72924864,10.9454545 L5.72924864,11.3291173 C5.72924864,11.4028986 5.78638617,11.4471673 5.84352371,11.4471673 L7.11483387,11.4471673 C7.18625579,11.4471673 7.22910894,11.3881423 7.22910894,11.3291173 L7.22910894,10.9454545 C7.22910894,10.8716733 7.1719714,10.8274045 7.11483387,10.8274045 L6.95770564,10.8274045 L6.95770564,5.61844532 L7.11483387,5.61844532 L7.11483387,5.61844532 Z" id="Path" fill="#DDDDDD"></path>
                        <path d="M4.95789191,5.61844532 C5.02931383,5.61844532 5.07216698,5.55942029 5.07216698,5.50039526 L5.07216698,5.11673254 C5.07216698,5.04295125 5.01502944,4.99868248 4.95789191,4.99868248 L3.68658175,4.99868248 C3.61515983,4.99868248 3.57230668,5.05770751 3.57230668,5.11673254 L3.57230668,5.50039526 C3.57230668,5.57417655 3.62944421,5.61844532 3.68658175,5.61844532 L3.84370997,5.61844532 L3.84370997,10.8274045 L3.68658175,10.8274045 C3.61515983,10.8274045 3.57230668,10.8864295 3.57230668,10.9454545 L3.57230668,11.3291173 C3.57230668,11.4028986 3.62944421,11.4471673 3.68658175,11.4471673 L4.95789191,11.4471673 C5.02931383,11.4471673 5.07216698,11.3881423 5.07216698,11.3291173 L5.07216698,10.9454545 C5.07216698,10.8716733 5.01502944,10.8274045 4.95789191,10.8274045 L4.80076369,10.8274045 L4.80076369,5.61844532 L4.95789191,5.61844532 L4.95789191,5.61844532 Z" id="Path" fill="#DDDDDD"></path>
                    </g>
                </g>
            </g>
        </g>
    </g>
</svg>