<?xml version="1.0" encoding="UTF-8"?>
<svg width="14px" height="14px" viewBox="0 0 14 14" version="1.1" xmlns="http://www.w3.org/2000/svg" xmlns:xlink="http://www.w3.org/1999/xlink">
    <title>Shape</title>
    <g id="RenswapMVP" stroke="none" stroke-width="1" fill="none" fill-rule="evenodd">
        <g id="OpenMenus" transform="translate(-1183.000000, -376.000000)" fill="#BDCBDA">
            <g id="OverlayLinks" transform="translate(1162.000000, 114.500000)">
                <g id="Socials" transform="translate(20.000000, 199.500000)">
                    <path d="M2.4,62 C1.62678,62 1,62.6268033 1,63.4 L1,74.6 C1,75.37322 1.62678,76 2.4,76 L13.6,76 C14.3732667,76 15,75.37322 15,74.6 L15,63.4 C15,62.6268033 14.3732667,62 13.6,62 L2.4,62 Z M4.32126667,66.4726267 C4.40615333,66.5498133 4.45053333,66.66368 4.43896,66.7775 L4.43896,70.9029267 C4.46598,71.0515133 4.41777333,71.2039733 4.31356667,71.3120067 L3.33333333,72.5025667 L3.33333333,72.65694 L6.11191333,72.65694 L6.11191333,72.5006067 L5.13168,71.3120067 C5.02556,71.2039733 4.97539333,71.0534267 4.99662667,70.9029267 L4.99662667,67.3351667 L7.43561333,72.6588533 L7.71925333,72.6588533 L9.81673333,67.3351667 L9.81673333,71.5763733 C9.81673333,71.68828 9.81673333,71.7114267 9.74346667,71.78474 L8.98886667,72.5160533 L8.98886667,72.67234 L12.6494,72.67234 L12.6494,72.5160533 L11.9218667,71.8021467 C11.8584,71.7538933 11.8252667,71.6728333 11.8388,71.5937333 L11.8388,66.3452733 C11.8252667,66.2661733 11.8584,66.18516 11.9218667,66.1369067 L12.6666667,65.4229627 L12.6666667,65.2666667 L10.0869333,65.2666667 L8.24794,69.8532533 L6.15629333,65.2666667 L3.45102667,65.2666667 L3.45102667,65.4229627 L4.32126667,66.4726267 Z" id="Shape"></path>
                </g>
            </g>
        </g>
    </g>
</svg>