<?xml version="1.0" encoding="UTF-8"?>
<svg width="16px" height="19px" viewBox="0 0 16 19" version="1.1" xmlns="http://www.w3.org/2000/svg" xmlns:xlink="http://www.w3.org/1999/xlink">
    <title>Combined Shape</title>
    <g id="RenswapMVP" stroke="none" stroke-width="1" fill="none" fill-rule="evenodd">
        <g id="Swap(ETH-&gt;BTC)" transform="translate(-998.000000, -73.000000)" fill="#FFFFFF" fill-rule="nonzero">
            <g id="Status" transform="translate(982.000000, 59.000000)">
                <path d="M24,30.4666667 C25.5905801,30.4666667 26.88,31.0337727 26.88,31.7333333 C26.88,32.432894 25.5905801,33 24,33 C22.4094199,33 21.12,32.432894 21.12,31.7333333 C21.12,31.0337727 22.4094199,30.4666667 24,30.4666667 Z M24,14 C24.8836556,14 25.6,14.7088825 25.6,15.5833333 C25.6,15.7594844 25.5709316,15.9289168 25.5172827,16.0871895 C26.6883924,16.3794826 27.727055,17.0202122 28.5028571,17.9599741 C29.7142857,19.3997409 30.3314286,21.459715 30.3314286,24.0512953 C30.3314286,25.3803109 30.887619,26.8569948 32,28.4813472 C31.8171429,28.636399 30.0571429,30.1204663 24,30.1204663 C17.9428571,30.1204663 16.1828571,28.636399 16,28.4813472 C17.112381,26.842228 17.6685714,25.365544 17.6685714,24.0512953 C17.6685714,21.459715 18.2857143,19.3997409 19.4971429,17.9599741 C20.2881712,17.0213232 21.3186354,16.380998 22.4838499,16.0858207 C22.4291909,15.9296302 22.4,15.7598552 22.4,15.5833333 C22.4,14.7088825 23.1163444,14 24,14 Z" id="Combined-Shape"></path>
            </g>
        </g>
    </g>
</svg>