<?xml version="1.0" encoding="UTF-8"?>
<svg width="11px" height="15px" viewBox="0 0 11 15" version="1.1" xmlns="http://www.w3.org/2000/svg" xmlns:xlink="http://www.w3.org/1999/xlink">
    <title>Group</title>
    <g id="RenswapMVP" stroke="none" stroke-width="1" fill="none" fill-rule="evenodd">
        <g id="OpenMenus" transform="translate(-1185.000000, -197.000000)" fill="#DDDDDD" fill-rule="nonzero">
            <g id="OverlayLinks" transform="translate(1162.000000, 114.500000)">
                <g id="UpperLinks" transform="translate(19.000000, 23.287568)">
                    <g id="Group" transform="translate(4.000000, 59.212432)">
                        <path d="M0,0 L0,15 L11,15 L11,2.92081027 L8.66666667,2.92081027 C8.36211966,2.92081027 8.11232124,2.74887098 8.11232124,2.44185961 L8.11232124,0 L0,0 Z M8.66666667,0.348837088 L8.66666667,2.44185961 L10.6666667,2.44185961 L8.66666667,0.348837088 Z M2,4.02188673 L9,4.02188673 C9.1841,4.02188673 9.33333333,4.17806109 9.33333333,4.37072382 C9.33333333,4.56338654 9.1841,4.7195609 9,4.7195609 L2,4.7195609 C1.8159,4.7195609 1.66666667,4.56338654 1.66666667,4.37072382 C1.66666667,4.17806109 1.8159,4.02188673 2,4.02188673 Z M2,6.27906932 L9,6.27906932 C9.1841,6.27906932 9.33333333,6.43524369 9.33333333,6.62790641 C9.33333333,6.82056913 9.1841,6.9767435 9,6.9767435 L2,6.9767435 C1.8159,6.9767435 1.66666667,6.82056913 1.66666667,6.62790641 C1.66666667,6.43524369 1.8159,6.27906932 2,6.27906932 Z M2,8.53625366 L9,8.53625366 C9.1841,8.53625366 9.33333333,8.69242802 9.33333333,8.88509074 C9.33333333,9.07775347 9.1841,9.23392783 9,9.23392783 L2,9.23392783 C1.8159,9.23392783 1.66666667,9.07775347 1.66666667,8.88509074 C1.66666667,8.69242802 1.8159,8.53625366 2,8.53625366 Z M9.12546282,11.0074723 C9.18252949,11.1339432 9.15752949,11.2959432 9.06531282,11.3971757 L6.89864615,13.8390353 C6.78841282,13.9636399 6.58644615,13.9835411 6.45592949,13.8826399 L5.12259615,12.8361287 C4.98002949,12.7285299 4.94497949,12.4940241 5.04934615,12.34603 C5.15369615,12.1980184 5.37814615,12.1638847 5.51842949,12.2747103 L6.61217949,13.1359018 L8.57572949,10.9229665 C8.63272949,10.8567747 8.71474615,10.8148445 8.79967949,10.8085131 C8.93296282,10.7982224 9.06839615,10.8810014 9.12546282,11.0074723 Z" id="Shape"></path>
                    </g>
                </g>
            </g>
        </g>
    </g>
</svg>