<?xml version="1.0" encoding="UTF-8"?>
<svg width="14px" height="13px" viewBox="0 0 14 13" version="1.1" xmlns="http://www.w3.org/2000/svg" xmlns:xlink="http://www.w3.org/1999/xlink">
    <title>Combined Shape</title>
    <g id="RenswapMVP" stroke="none" stroke-width="1" fill="none" fill-rule="evenodd">
        <g id="OpenMenus" transform="translate(-1183.000000, -169.000000)" fill="#D8D8D8">
            <g id="OverlayLinks" transform="translate(1162.000000, 114.500000)">
                <g id="UpperLinks" transform="translate(19.000000, 23.287568)">
                    <path d="M9.45342997,31.2124321 C13.0690008,31.2124321 16,34.1037879 16,37.670456 C16,41.2371241 13.0690008,44.1284798 9.45342997,44.1284798 C8.19051412,44.1284798 7.01112278,43.7757058 6.01099411,43.164601 C5.45333395,42.823856 2.47123631,44.613485 2.04164029,44.1284798 C1.67619354,43.7158979 3.84325977,41.0463527 3.59271362,40.5513036 C3.15378853,39.6840403 2.90685995,38.7056947 2.90685995,37.670456 C2.90685995,34.1037879 5.83785918,31.2124321 9.45342997,31.2124321 Z M9.41851493,40.0211767 C9.27885477,40.0211767 9.16538089,40.0685355 9.07809329,40.1632532 C8.99080569,40.2579709 8.94716189,40.3656046 8.94716189,40.4861544 C8.94716189,40.6067042 8.99080569,40.7143379 9.07809329,40.8090556 C9.16538089,40.9037733 9.27885477,40.9511321 9.41851493,40.9511321 C9.55817509,40.9511321 9.67164897,40.9037733 9.75893657,40.8090556 C9.84622417,40.7143379 9.88986797,40.6067042 9.88986797,40.4861544 C9.88986797,40.3656046 9.84622417,40.2579709 9.75893657,40.1632532 C9.67164897,40.0685355 9.55817509,40.0211767 9.41851493,40.0211767 Z M9.43597245,34.699765 C9.20902469,34.699765 8.99662486,34.7313376 8.79877297,34.7944827 C8.60092108,34.8576278 8.42489108,34.9509104 8.27068299,35.0743304 C8.11647489,35.1977504 7.98845308,35.3484376 7.88661755,35.5263921 C7.8102409,35.6598579 7.75268563,35.8062398 7.71395176,35.9655377 L7.68149169,36.1291409 L8.33614869,36.2066372 C8.38852125,35.9253544 8.51217868,35.698606 8.70712099,35.5263921 C8.9020633,35.3541781 9.14792337,35.2680711 9.44470121,35.2680711 C9.74729823,35.2680711 9.9931583,35.3599185 10.1822814,35.5436134 C10.3714046,35.7273083 10.4659661,35.9655377 10.4659661,36.2583014 C10.4659661,36.4305154 10.4310511,36.5826377 10.361221,36.7146684 C10.2913909,36.8466992 10.2055581,36.9715543 10.1037226,37.0892338 C10.0018871,37.2069134 9.88986797,37.3174173 9.76766533,37.4207457 L9.59090794,37.5789673 L9.42724369,37.7436469 C9.32249857,37.855586 9.23375618,37.9761358 9.16101651,38.1052962 C9.10646176,38.2021666 9.07236504,38.3063022 9.05872635,38.4177032 L9.05190701,38.5315258 L9.05190701,39.2462138 L9.68037773,39.2462138 L9.68037773,38.8070682 C9.68037773,38.6004114 9.71529277,38.4253272 9.78512285,38.2818156 C9.85495293,38.1383039 9.94224053,38.0105786 10.0469857,37.8986395 C10.1517308,37.7867004 10.2652047,37.6819369 10.3874073,37.584349 C10.5096099,37.4867611 10.6230838,37.3762571 10.7278289,37.2528371 C10.8325741,37.1294171 10.9198617,36.9844703 10.9896917,36.8179968 C11.0595218,36.6515233 11.0944369,36.4477368 11.0944369,36.2066372 C11.0944369,35.9655377 11.0522479,35.7502702 10.9678698,35.5608348 C10.8834918,35.3713995 10.7671084,35.2135367 10.6187194,35.0872464 C10.4703305,34.9609562 10.2943005,34.8648034 10.0906295,34.798788 C9.88695839,34.7327727 9.66873939,34.699765 9.43597245,34.699765 Z" id="Combined-Shape"></path>
                </g>
            </g>
        </g>
    </g>
</svg>