<?xml version="1.0" encoding="UTF-8"?>
<svg width="14px" height="14px" viewBox="0 0 14 14" version="1.1" xmlns="http://www.w3.org/2000/svg" xmlns:xlink="http://www.w3.org/1999/xlink">
    <title>Shape</title>
    <g id="RenswapMVP" stroke="none" stroke-width="1" fill="none" fill-rule="evenodd">
        <g id="OpenMenus" transform="translate(-1183.000000, -406.000000)" fill="#BDCBDA">
            <g id="OverlayLinks" transform="translate(1162.000000, 114.500000)">
                <g id="Socials" transform="translate(20.000000, 199.500000)">
                    <path d="M2.4,92 C1.62673333,92 1,92.6268033 1,93.4 L1,104.6 C1,105.37322 1.62673333,106 2.4,106 L13.6,106 C14.3732667,106 15,105.37322 15,104.6 L15,93.4 C15,92.6268033 14.3732667,92 13.6,92 L2.4,92 Z M11.2316667,102.62152 L12.6400667,95.97922 C12.7651333,95.3937727 12.4296,95.164588 12.0464667,95.3083493 L3.7664,98.49824 C3.20173333,98.7190667 3.21013333,99.0357467 3.67073333,99.1795267 L5.78753333,99.8421 L10.7043333,96.746 C10.9358,96.5918133 11.1462667,96.6772133 10.9731333,96.8314 L6.99573333,100.42548 L6.84173333,102.611067 C7.06246667,102.611067 7.15813333,102.51526 7.27293333,102.400647 L8.30846667,101.404733 L10.4546667,102.986127 C10.8480667,103.206953 11.1252667,103.090287 11.2316667,102.62152 Z" id="Shape"></path>
                </g>
            </g>
        </g>
    </g>
</svg>