<?xml version="1.0" encoding="UTF-8"?>
<svg width="14px" height="14px" viewBox="0 0 14 14" version="1.1" xmlns="http://www.w3.org/2000/svg" xmlns:xlink="http://www.w3.org/1999/xlink">
    <title>Shape</title>
    <g id="RenswapMVP" stroke="none" stroke-width="1" fill="none" fill-rule="evenodd">
        <g id="OpenMenus" transform="translate(-1183.000000, -316.000000)" fill="#BDCBDA" fill-rule="nonzero">
            <g id="OverlayLinks" transform="translate(1162.000000, 114.500000)">
                <g id="Socials" transform="translate(20.000000, 199.500000)">
                    <path d="M13.5,2 L2.5,2 C1.671874,2 1,2.67187889 1,3.5 L1,14.5 C1,15.3281398 1.671874,16 2.5,16 L13.5,16 C14.32814,16 15,15.3281398 15,14.5 L15,3.5 C15,2.67187889 14.32814,2 13.5,2 Z M11.9718933,6.96248365 C11.9781467,7.04998368 11.9781467,7.14061038 11.9781467,7.22811041 C11.9781467,9.93748465 9.91562,13.0593924 6.14686667,13.0593924 C4.98437667,13.0593924 3.90625067,12.7218989 2.999998,12.1406187 C3.16562267,12.1593787 3.32499867,12.1656321 3.49375,12.1656321 C4.45312333,12.1656321 5.33437667,11.8406453 6.03748,11.2906318 C5.13749933,11.2718718 4.381252,10.6812582 4.121874,9.86874462 C4.43749933,9.91564464 4.72187667,9.91564464 5.04687733,9.83127128 C4.10937667,9.64063788 3.40625,8.81561761 3.40625,7.81877061 L3.40625,7.79375726 C3.67812533,7.94687065 3.99687267,8.04062401 4.33124867,8.05313068 C4.05013333,7.86613729 3.819684,7.6124572 3.66045733,7.31472377 C3.50123533,7.01703701 3.41819667,6.68449023 3.418752,6.34685678 C3.418752,5.96563666 3.51874933,5.61562721 3.696876,5.31250377 C4.706248,6.55625019 6.22186,7.36876379 7.92188,7.45626382 C7.63124,6.06564336 8.67186,4.93750431 9.92187333,4.93750431 C10.5124867,4.93750431 11.04374,5.18437573 11.4187533,5.58437919 C11.8812667,5.49687917 12.32502,5.32500111 12.7187467,5.09062703 C12.5656333,5.56562852 12.2437733,5.96563666 11.8187333,6.21875674 C12.2312667,6.17498339 12.6312467,6.05939002 12.999998,5.9000233 C12.7218733,6.30938344 12.3718733,6.67189022 11.9718933,6.96248365 Z" id="Shape"></path>
                </g>
            </g>
        </g>
    </g>
</svg>