<?xml version="1.0" encoding="UTF-8"?>
<svg width="15px" height="15px" viewBox="0 0 15 15" version="1.1" xmlns="http://www.w3.org/2000/svg" xmlns:xlink="http://www.w3.org/1999/xlink">
    <title>Logo Copy 2</title>
    <g id="RenswapMVP" stroke="none" stroke-width="1" fill="none" fill-rule="evenodd">
        <g id="OpenMenus" transform="translate(-1181.000000, -139.000000)">
            <g id="OverlayLinks" transform="translate(1162.000000, 114.500000)">
                <g id="UpperLinks" transform="translate(19.000000, 23.287568)">
                    <g id="Group-7-Copy-2" transform="translate(0.000000, 1.212432)">
                        <g id="Group-5-Copy-2">
                            <g id="Group-2-Copy-2" transform="translate(7.500000, 7.500000) scale(-1, 1) translate(-7.500000, -7.500000) ">
                                <path d="M0.00991762282,8.77333003 C0.0487388693,8.44501662 0.152262193,8.23161291 0.216964271,8.10028755 C0.618117151,7.2959197 1.56276748,5.60510565 1.73099288,5.29320792 C1.78275455,5.21112957 1.84745662,5.0798042 1.89921829,4.89923183 C1.96392036,4.70224378 1.98980119,4.50525574 2.00274161,4.45600873 C2.01568203,4.37393038 2.01568203,4.37393038 2.02862244,4.3082677 C2.02862244,4.27543636 2.06744369,4.04561697 2.1580266,3.84862893 C2.23566909,3.66805655 2.326252,3.55314686 2.39095407,3.45465284 C2.93445153,2.79802602 3.68462993,2.31855483 3.85322103,1.76383879 C3.87538359,1.6909172 3.90714937,1.61248758 3.94681581,1.53148201 C3.95118409,1.52256123 3.9952298,0.209184582 3.99978744,0.200205246 C4.26866743,-0.329534508 4.82353618,0.350049131 5.27666673,0.434169493 C6.68717202,0.696820219 7.58176053,1.72883389 8.8111,2.74660545 C8.89373814,2.81918096 9.23968229,3.27344834 9.82525011,3.84862893 C10.2156287,4.23208265 10.7580416,5.15935106 11.452489,6.63043416 L11.7330237,7.94493033 L12.2016423,9.61240742 C12.1892624,9.7099037 12.1657969,10.0114128 12.1312457,10.5169348 C12.0414035,11.8314236 11.443506,13.2775833 11.2882211,13.9670414 C10.8741278,13.8028847 7.4353322,14.6298903 5.85660151,14.941788 C5.605461,14.988986 5.31253382,15.0149805 4.97842068,14.9908135 C4.83635607,14.9805377 8.96801081,7.05961297 8.8111,7.02897332 C8.71370431,7.00995506 4.33229202,14.8881652 4.22920525,14.8599112 C3.80216573,14.7428681 3.3263901,14.542012 2.80266345,14.2194985 C3.04421788,14.1428921 4.26246449,12.387174 6.45740329,8.95234418 C6.70122705,8.49202608 6.82313892,8.04641759 6.82313892,7.61551871 C6.82313892,7.13065303 6.64814421,6.59156613 6.2981548,5.99825803 C6.2834474,6.36277699 6.24708199,6.66110072 6.18905856,6.89322921 C6.10202342,7.24142196 5.01644222,8.65874282 4.68140762,8.7897457 C4.13962131,9.00159119 4.36478948,8.64044644 3.53660289,8.95234418 C3.38131791,9.00159119 3.20015209,9.08366954 3.00604586,9.28065758 C2.76017796,9.52689264 2.50534044,9.83762013 2.50534044,9.83762013 C2.4665192,9.91969849 2.45357878,9.95252983 2.41475753,10.0510238 C2.36299587,10.1659335 2.02862244,10.6447165 1.88627787,10.7760418 C1.7439333,10.9073672 1.61452914,10.9730299 1.52394624,11.0058612 C1.44630374,11.0386925 1.38160167,11.0551082 1.36866125,11.0551082 C1.18749543,11.1043552 1.03221045,11.0879396 0.954567954,11.0879396 C0.866062524,11.0719004 0.489111078,10.6552318 0.416613516,10.5965446 C0.360143615,10.5508319 4.49825109,7.04425119 4.48715964,7.02897332 C4.47083484,7.00648677 4.01441136,6.62159725 3.53660289,7.37509982 C1.9808895,9.82845534 0.435225057,10.6294018 0.416613516,10.5965446 C0.357676672,10.4924963 0.316506012,10.3992392 0.294606764,10.3492344 C0.178143024,10.0865837 0.139321778,9.85676428 0.0746197003,9.47920386 C0.00991762282,9.21655313 -0.0159632082,9.01956509 0.00991762282,8.77333003 Z M3.2201463,2.3413505 C3.18540117,2.3629023 3.18509935,2.29516958 3.20680275,2.21151913 C3.22850616,2.12786868 3.28390042,0.859555896 3.28845806,0.85057656 C3.4121902,0.606802993 3.60220277,0.556433404 3.80355602,0.71164966 C3.82355652,0.727067358 3.81736066,0.997188633 3.78496843,1.52201349 C3.58378976,1.95945956 3.39551571,2.23257189 3.2201463,2.3413505 Z M2.90351133,5.2254559 L3.64258793,4.81630423 C3.78867441,4.67508062 3.87997846,4.43970794 3.87997846,4.180798 L3.87997846,3.85127625 C3.87997846,3.71005264 3.62940219,3.58109298 3.57164463,3.69877931 L2.78432986,5.09875144 C2.65650419,5.31058685 2.71458826,5.31058685 2.90351133,5.2254559 Z M0.217682641,9.08292742 C0.243712293,9.27246955 0.229064137,9.18760026 0.240445634,9.24741331 C0.263208628,9.35208616 0.304607531,9.58073604 0.327370525,9.67045561 C0.362537702,9.75457953 0.423825117,9.75457953 0.44079207,9.68220475 C0.44079207,9.65229823 0.517754519,9.37917823 0.563280507,9.25955213 C0.597424997,9.16983255 0.484859684,8.85906267 0.405189207,8.79924962 C0.319543461,8.74435315 0.191652988,8.89338529 0.217682641,9.08292742 Z" id="Combined-Shape" fill="#DDDDDD" fill-rule="nonzero"></path>
                                <g id="Group-8" transform="translate(7.685915, 5.898901)">
                                    <path d="M7.16565221,2.99823706 C7.16565221,2.99823706 6.96860238,2.10041757 5.06876273,1.82312944 C3.84116172,1.64402294 2.83309911,2.42590678 1.63561144,2.84403974 C0.438217721,3.26208513 0.148386104,2.99611015 0.148386104,2.99611015 C0.148386104,2.99611015 1.05728398,4.44753938 2.7649814,4.58048747 C4.4726686,4.71333778 6.40116384,2.55871302 6.40116384,2.55871302 C6.40116384,2.55871302 7.16565221,2.99823706 7.16565221,2.99823706 Z" id="Path" fill="#DDDDDD" fill-rule="nonzero" transform="translate(3.657019, 3.191645) scale(-1, 1) rotate(-36.000000) translate(-3.657019, -3.191645) "></path>
                                    <path d="M3.31111121,5.07454119 C3.65867067,5.14289267 4.1278918,5.13185899 4.7187746,5.04144015 C5.60509881,4.90581188 5.96296197,4.67779706 6.12330998,4.64420921 C6.23020865,4.62181731 6.3941555,4.62181731 6.61515053,4.64420921 C6.404413,4.81673038 6.18397681,4.94914069 5.95384197,5.04144015 C5.60863971,5.17988933 5.40663642,5.23653197 5.02493395,5.28199238 C4.64323148,5.32745279 4.54744672,5.31995364 4.08517127,5.2639971 C3.77698763,5.22669274 3.51896761,5.16354077 3.31111121,5.07454119 Z" id="Path-34" fill="#BEBEBE" transform="translate(4.963131, 4.969521) scale(-1, 1) translate(-4.963131, -4.969521) "></path>
                                </g>
                                <g id="Group-9" transform="translate(8.435739, 5.326715)">
                                    <path d="M5.36987242,0.948412931 C4.09600546,0.785750543 3.03861335,1.468055 1.78875923,1.83006128 C0.539003825,2.19199106 0.240979025,1.95712819 0.240979025,1.95712819 C0.240979025,1.95712819 1.16803591,3.23584173 2.94151143,3.36006026 C4.71497751,3.48419288 7.34131218,1.20023966 5.36987242,0.948412931 Z" id="Path-Copy-20" fill="#DDDDDD" fill-rule="nonzero" transform="translate(3.156278, 2.144353) scale(-1, 1) rotate(-20.000000) translate(-3.156278, -2.144353) "></path>
                                    <path d="M4.04070786,2.9890741 C4.36607448,3.09756023 4.65371537,3.16633233 4.90363053,3.19539039 C5.27850328,3.23897749 5.41890358,3.14171785 5.69655279,3.25273283 C5.88165227,3.32674281 5.97065531,3.41377531 5.96356194,3.51383032 C5.83265622,3.52010771 5.66173881,3.50743487 5.45080971,3.4758118 C5.13441606,3.42837719 5.12555292,3.42028938 4.87364007,3.35042623 C4.62172722,3.28056307 4.64953027,3.28974971 4.43283565,3.19349638 C4.28837257,3.12932749 4.1576633,3.06118673 4.04070786,2.9890741 Z" id="Path-35" fill="#BEBEBE" transform="translate(5.002331, 3.252232) scale(-1, 1) translate(-5.002331, -3.252232) "></path>
                                </g>
                                <g id="Group-10" transform="translate(7.697317, 3.880777)">
                                    <path d="M5.52139096,0.214181495 C4.21335547,0.142133667 3.04705247,0.970745692 1.71226906,1.46702785 C0.377595807,1.96321873 0.0909729154,1.7324369 0.0909729154,1.7324369 C0.0909729154,1.7324369 0.928542778,3.0461327 2.75966357,3.03530489 C4.59078302,3.02438446 7.54570113,0.325780728 5.52139096,0.214181495 Z" id="Path-Copy-21" fill="#DDDDDD" fill-rule="nonzero" transform="translate(3.146934, 1.622574) scale(-1, 1) rotate(-4.000000) translate(-3.146934, -1.622574) "></path>
                                    <path d="M4.68050158,1.96132815 C4.90105468,2.04870921 5.11952069,2.13723871 5.33589961,2.22691667 C5.66046798,2.3614336 5.77357798,2.3615083 5.94752098,2.53701654 C6.06348298,2.65402204 6.13428338,2.79545924 6.15992217,2.96132815 C6.04245644,2.93016537 5.90600595,2.87612326 5.7505707,2.7992018 C5.51741783,2.68381962 5.4942081,2.666179 5.30204433,2.53701654 C5.10988055,2.40785408 5.10900859,2.40577834 4.96133245,2.26871704 C4.8628817,2.17734285 4.76927141,2.07487988 4.68050158,1.96132815 Z" id="Path-36" fill="#BEBEBE" transform="translate(5.420212, 2.461328) scale(-1, 1) translate(-5.420212, -2.461328) "></path>
                                </g>
                            </g>
                            <path d="M10.0192841,15 C9.95135054,14.8564052 9.77740704,14.4743536 9.49745355,13.8538453 C9.07752331,12.9230827 9.82217819,14.5339414 8.60780753,12.0393995 C7.79822709,10.3763715 6.98969448,8.71114543 6.18220969,7.04372119 L7.54669972,14.6101308 L9.44765967,15 L10.0192841,15 Z" id="Path-25" fill="#BEBEBE"></path>
                            <path d="M12.1891009,14.2031053 C11.6793609,13.5551294 10.96166,12.550901 10.035998,11.1904202 C9.11033609,9.8299395 8.6167999,9.08232266 8.55538946,8.94756974 L8.29046588,8.29933 L8.1686927,7.70684084 L8.23309532,7.12703548 L8.68637739,6 L7.84946718,7.49842929 L10.7707671,14.8421053 L11.4664083,14.5930323 L12.1891009,14.2031053 Z" id="Path-25-Copy" fill="#BEBEBE"></path>
                            <path d="M8.74200582,6 C8.71836657,6.160895 8.78050024,6.35925434 8.92840683,6.59507801 C9.15026671,6.94881352 9.95281099,8.04751636 10.2401086,8.34067093 C10.4316403,8.53610731 10.7196682,8.69510169 11.1041925,8.81765407 C10.9998619,8.80469531 10.9354342,8.79821593 10.9109094,8.79821593 C10.8519931,8.79821593 10.7948642,8.81607955 10.7155094,8.8293212 C10.54167,8.85832916 10.5129858,8.83802814 10.3139225,8.76783718 C10.1148591,8.69764623 9.7212587,8.2300873 9.31340383,7.73259492 C8.90554897,7.23510255 8.91046214,7.14680506 8.8150108,6.88738867 C8.75137657,6.71444441 8.72704158,6.41864819 8.74200582,6 Z" id="Path-26" fill="#BEBEBE"></path>
                            <polygon id="Path-28" fill="#BEBEBE" transform="translate(11.548019, 7.973684) scale(-1, -1) translate(-11.548019, -7.973684) " points="10.4631102 7.05263158 12.6329271 8.89473684 12.3605543 8.79729121 10.5174552 7.15411543"></polygon>
                            <path d="M11.7452747,2.31578947 L11.2872735,0.654319 C11.2631876,0.664203602 11.2389623,0.676173025 11.2145978,0.690227267 C11.1902333,0.70428151 11.1712834,0.708040242 11.1577481,0.701503465 C11.1520926,0.807276587 11.1520926,0.93585535 11.1577481,1.08723975 C11.1634036,1.23862416 11.1738138,1.38870297 11.1889787,1.5374762 C11.2543025,1.69059305 11.3466085,1.85229063 11.4658967,2.02256892 C11.585185,2.19284722 11.678311,2.2905874 11.7452747,2.31578947 Z" id="Path-29" fill="#9C9C9C"></path>
                            <polygon id="Path-30" fill="#BEBEBE" points="11.1041925 3.21052632 12.386357 5.42105263 11.3061732 3.33831783"></polygon>
                            <path d="M14.3589178,9.10526316 C14.4331257,9.25033903 14.4855114,9.36739001 14.5160748,9.45641609 C14.5466381,9.54544217 14.5764425,9.67400523 14.6054879,9.84210526" id="Path-31" fill="#BEBEBE"></path>
                        </g>
                        <path d="M11.6341464,2.54561829 C11.0987936,2.70853098 10.9069527,2.59512965 10.5104718,2.54005718 C10.0489524,2.47595063 9.56849719,2.67718238 9.56849719,2.67718238 C9.56849719,2.67718238 9.94543247,2.67048696 10.224412,2.74388213 C10.9887724,2.94497352 11.4777939,3.3193214 12.2798098,3.29737943 C13.4514824,3.26527893 12.4958376,2.28337348 11.6341464,2.54561829 Z" id="Path-Copy-11" fill="#DDDDDD" fill-rule="nonzero" transform="translate(11.196572, 2.899726) scale(-1, 1) rotate(-12.000000) translate(-11.196572, -2.899726) "></path>
                        <path d="M11.2396342,2.20110223 C10.7042814,2.36401492 10.5124405,2.2506136 10.1159597,2.19554112 C9.65444021,2.13143457 9.17398503,2.33266632 9.17398503,2.33266632 C9.17398503,2.33266632 9.55092031,2.3259709 9.8298998,2.39936608 C10.5942603,2.60045746 11.0832818,2.97480534 11.8852977,2.95286337 C13.0569702,2.92076287 12.1013254,1.93885742 11.2396342,2.20110223 Z" id="Path-Copy-12" fill="#DDDDDD" fill-rule="nonzero" transform="translate(10.802059, 2.555210) scale(-1, -1) rotate(-12.000000) translate(-10.802059, -2.555210) "></path>
                        <path d="M12.062762,2.83562615 C11.5925003,2.75291219 11.0377106,3.40382141 11.0377106,3.40382141 C11.0377106,3.40382141 11.3646039,3.29935643 11.6502476,3.38359808 C11.9430659,3.46995565 12.3208999,3.26023676 12.5675677,3.36311472 C12.9801723,3.53520005 12.466753,2.90668382 12.062762,2.83562615 Z" id="Path-Copy-16" fill="#DDDDDD" fill-rule="nonzero" transform="translate(11.878756, 3.116682) scale(-1, -1) rotate(29.000000) translate(-11.878756, -3.116682) "></path>
                    </g>
                </g>
            </g>
        </g>
    </g>
</svg>