<?xml version="1.0" encoding="utf-8"?>
<!-- Generator: Adobe Illustrator 26.5.0, SVG Export Plug-In . SVG Version: 6.00 Build 0)  -->
<svg version="1.1" id="logo" xmlns="http://www.w3.org/2000/svg" xmlns:xlink="http://www.w3.org/1999/xlink" x="0px" y="0px"
	 viewBox="0 0 303 45" style="enable-background:new 0 0 303 45;" xml:space="preserve">
<path style="fill:#DCDCDC;" d="M15.5,12h15.9v13.4h-4.8l-0.3-3.9c-2.4,2.6-6.1,4.3-11.4,4.3C5.6,25.7,0,21.2,0,12.9
	C0,4.6,5.6,0,15.9,0c10,0,15,3.9,15.4,10.1h-6.5c-0.4-1.9-2.1-4.7-8.9-4.7C7.6,5.4,6.4,10,6.4,13c0,3,1.2,7.8,9.5,7.8
	c6.2,0,8.7-2.7,8.9-4.6h-9.3V12z"/>
<path style="fill:#DCDCDC;" d="M58.6,20h-15L41,25.4h-7.1l12.9-25h8.7l12.9,25h-7.1L58.6,20z M56.3,15.3L51.2,5.1l-5.1,10.1H56.3z"
	/>
<path style="fill:#DCDCDC;" d="M75.2,16.8c0,2.6,2.1,3.9,10.3,3.9c6.8,0,8.8-0.8,8.8-2.7c0-2.1-1.4-2.4-9.5-2.8
	c-10.9-0.5-15.2-2.2-15.2-7.8c0-5.5,5.6-7.3,15-7.3C94,0,99.7,2.4,99.7,8.5h-6.4c0-2.7-2.8-3.4-9.4-3.4c-6.3,0-7.8,0.6-7.8,2.5
	c0,1.9,1.5,2.3,8.8,2.7c9.9,0.5,16,1.1,16,7.4c0,6.7-6.3,8-15.6,8c-10.3,0-16.4-1.7-16.4-9L75.2,16.8L75.2,16.8z"/>
<path style="fill:#FFD049;" d="M137.1,1.4v22.9h-4.3v-8.7v-1.1h-1.1h-20.4h-1.1v1.1v8.7H106V1.4h4.3v8.7v1.1h1.1h20.4h1.1v-1.1V1.4
	H137.1 M138.2,0.4h-6.4v9.8h-20.4V0.4h-6.4v25h6.4v-9.8h20.4v9.8h6.4V0.4L138.2,0.4z"/>
<path style="fill:#FFD049;" d="M157.9,1.1c10,0,14.7,3.7,14.7,11.8c0,8.1-4.7,11.8-14.7,11.8c-10,0-14.7-3.8-14.7-11.8
	C143.2,4.8,147.9,1.1,157.9,1.1 M157.9,21.4c7.1,0,10.4-2.7,10.4-8.6c0-5.9-3.2-8.5-10.4-8.5c-7.2,0-10.4,2.6-10.4,8.5
	C147.5,18.7,150.8,21.4,157.9,21.4 M157.9,0c-11,0-15.7,4.5-15.7,12.8c0,8.3,4.7,12.9,15.7,12.9c11,0,15.7-4.6,15.7-12.9
	C173.6,4.6,168.9,0,157.9,0L157.9,0z M157.9,20.3c-6.7,0-9.3-2.4-9.3-7.5c0-5.1,2.6-7.4,9.3-7.4c6.7,0,9.3,2.4,9.3,7.4
	C167.2,17.9,164.6,20.3,157.9,20.3L157.9,20.3z"/>
<path style="fill:#FFD049;" d="M196.7,1.4c5.2,0,8.5,3.2,8.5,8.1c0,4.9-3.3,8.1-8.5,8.1h-13.2h-1.1v1.1v5.6h-4.3V1.4H196.7
	 M182.4,14.4h1.1h11.4c1.8,0,6,0,6-4.8c0-4.9-4.2-4.9-6-4.9h-11.4h-1.1v1.1v7.5V14.4 M196.7,0.4H177v25h6.4v-6.7h13.2
	c5.7,0,9.6-3.6,9.6-9.1C206.3,4,202.4,0.4,196.7,0.4L196.7,0.4z M183.5,13.3V5.8h11.4c1.9,0,4.9,0,4.9,3.8c0,3.8-3,3.8-4.9,3.8
	L183.5,13.3L183.5,13.3z"/>
<path style="fill:#FFD049;" d="M230.1,1.4c5.2,0,8.5,3.2,8.5,8.1c0,4.9-3.3,8.1-8.5,8.1h-13.2h-1.1v1.1v5.6h-4.3V1.4H230.1
	 M215.8,14.4h1.1h11.4c1.8,0,6,0,6-4.8c0-4.9-4.2-4.9-6-4.9h-11.4h-1.1v1.1v7.5V14.4 M230.1,0.4h-19.7v25h6.4v-6.7h13.2
	c5.7,0,9.6-3.6,9.6-9.1C239.7,4,235.8,0.4,230.1,0.4L230.1,0.4z M216.9,13.3V5.8h11.4c1.9,0,4.9,0,4.9,3.8c0,3.8-3,3.8-4.9,3.8
	L216.9,13.3L216.9,13.3z"/>
<path style="fill:#FFD049;" d="M268.5,1.4v3h-19h-1.1v1.1v5.1v1.1h1.1h19v2.5h-19h-1.1v1.1v5.1v1.1h1.1h19v3h-24.3V1.4H268.5
	 M269.6,0.4h-26.5v25h26.5v-5.1h-20v-5.1h20v-4.6h-20V5.5h20V0.4L269.6,0.4z"/>
<path style="fill:#FFD049;" d="M293.4,1.4c5.2,0,8.5,3.2,8.5,8.1c0,3.5-1.7,6.2-4.8,7.4l-1.2,0.5l0.7,1.1l3.6,5.8h-5.1l-3.7-6.2
	l-0.3-0.5h-0.6h-10.4h-1.1v1.1v5.6h-4.3V1.4H293.4 M279.1,14.4h1.1h11.4c1.8,0,6,0,6-4.8c0-4.9-4.2-4.9-6-4.9h-11.4h-1.1v1.1v7.5
	V14.4 M293.4,0.4h-19.7v25h6.4v-6.7h10.4l4,6.7h7.6l-4.6-7.4c3.4-1.3,5.4-4.3,5.4-8.4C303,4,299.1,0.4,293.4,0.4L293.4,0.4z
	 M280.2,13.3V5.8h11.4c1.9,0,4.9,0,4.9,3.8c0,3.8-3,3.8-4.9,3.8L280.2,13.3L280.2,13.3z"/>
<path id="VAREN" style="fill:#DCDCDC;" d="M232.3,45l6.4-12.7h-3.6l-5,10.2l-5-10.2h-3.6l6.4,12.7H232.3z M239.8,45l1.3-2.7h7.5
	l1.3,2.7h3.6L247,32.3h-4.3L236.2,45H239.8z M247.4,39.9h-5.1l2.6-5.2L247.4,39.9z M258.4,45v-3.4h5.1l2,3.4h3.7l-2.3-3.8
	c1.7-0.7,2.7-2.2,2.7-4.2c0-2.8-1.9-4.6-4.7-4.6h-9.7V45L258.4,45L258.4,45z M264.1,38.8h-5.8V35h5.7h0l0,0h0.1c1,0,2.3,0.1,2.3,1.9
	C266.4,38.7,265.1,38.8,264.1,38.8L264.1,38.8z M284.9,45v-2.6h-10v-2.6h9.1v-2.4h-9.1v-2.6h10v-2.6h-13.2V45H284.9z M290.2,45v-9.5
	l8.5,9.5h4.4V32.3h-3.2v9.5l-8.5-9.5H287V45H290.2z"/>
<path style="fill:#DCDCDC;" d="M193.7,32.4h-11.6v12.5h12c2.5,0,3.8-1.2,3.8-3.4c0-1.3-0.5-2.2-1.6-2.9l-0.7-0.4l0.6-0.6
	c0.6-0.7,0.9-1.4,0.9-2.2C197.2,33.3,196.1,32.4,193.7,32.4z M184.3,37.2v-2.9v-0.7h0.7h7.4c0.9,0,2.6,0,2.6,2.1
	c0,2.2-1.7,2.2-2.5,2.2h0H185h-0.7V37.2z M195.9,41.4c0,2.2-1.7,2.2-2.5,2.2H185h-0.7v-0.7v-2.9v-0.7h0.7h8.3
	C194.2,39.2,195.9,39.2,195.9,41.4z"/>
<polygon style="fill:#DCDCDC;" points="212.7,32.4 207.6,38.5 207,39.2 206.5,38.5 201.3,32.4 198.8,32.4 205.8,40.6 205.9,40.8 
	205.9,41.1 205.9,45 208.1,45 208.1,41.1 208.1,40.8 208.3,40.6 215.2,32.4 "/>
</svg>
