<?xml version="1.0" standalone="no"?>
<!DOCTYPE svg PUBLIC "-//W3C//DTD SVG 20010904//EN"
 "http://www.w3.org/TR/2001/REC-SVG-20010904/DTD/svg10.dtd">
<svg version="1.0" xmlns="http://www.w3.org/2000/svg"
 width="700.000000pt" height="700.000000pt" viewBox="0 0 700.000000 700.000000"
 preserveAspectRatio="xMidYMid meet">
<metadata>
Created by potrace 1.14, written by Peter Selinger 2001-2017
</metadata>
<g transform="translate(0.000000,700.000000) scale(0.100000,-0.100000)"
fill="#000000" stroke="none">
<path d="M3280 6994 c-19 -2 -84 -9 -145 -14 -578 -56 -1180 -283 -1660 -625
-237 -169 -531 -446 -709 -670 -416 -521 -673 -1147 -748 -1820 -17 -154 -17
-585 0 -730 69 -588 254 -1099 567 -1570 126 -189 242 -332 410 -504 580 -595
1295 -943 2140 -1043 145 -17 576 -17 730 0 822 91 1556 447 2131 1034 203
206 348 390 487 618 274 449 432 915 499 1465 16 135 16 591 0 730 -100 846
-447 1557 -1043 2141 -555 542 -1249 874 -2029 970 -117 15 -553 27 -630 18z
m1291 -893 c27 -29 27 -30 34 -247 6 -200 9 -225 32 -284 30 -78 60 -126 125
-202 68 -78 84 -83 215 -69 58 6 108 9 110 7 2 -2 -30 -18 -72 -37 l-76 -33
63 -13 c69 -14 180 -56 212 -80 20 -14 19 -15 -14 -9 -19 3 -69 8 -110 11
l-75 6 38 -34 c20 -19 59 -42 85 -52 26 -9 54 -19 62 -22 10 -4 2 -10 -23 -17
l-37 -11 41 -55 c63 -83 95 -162 124 -303 36 -177 51 -213 188 -447 210 -358
417 -722 457 -805 83 -170 88 -274 27 -534 -50 -208 -81 -273 -173 -361 -108
-102 -110 -103 -207 -98 -91 5 -168 33 -238 89 -48 38 -179 211 -218 287 -35
67 -193 234 -266 281 -51 32 -196 83 -271 96 -23 3 -68 2 -100 -4 -121 -23
-211 28 -373 210 -119 132 -267 324 -297 385 -24 48 -43 141 -61 284 l-8 65
-63 -139 c-90 -199 -104 -245 -110 -361 -5 -121 13 -206 79 -366 49 -118 106
-207 340 -534 405 -565 656 -903 883 -1190 117 -147 126 -161 109 -173 -78
-59 -460 -213 -495 -199 -36 13 -440 656 -1148 1822 -133 220 -247 405 -253
410 -5 6 11 -28 36 -75 584 -1093 1127 -2154 1127 -2201 0 -8 -49 -10 -157 -7
-154 5 -174 8 -788 131 -844 169 -1127 217 -1280 217 l-63 0 -7 33 c-4 17 -45
147 -91 289 -80 245 -139 455 -164 581 -11 57 -13 58 -38 52 -93 -23 -156 -29
-307 -29 -173 0 -286 14 -405 50 -49 15 -52 18 -30 24 64 18 123 60 220 159
113 114 187 214 317 425 l82 134 -72 6 c-193 18 -367 62 -510 128 l-89 42 69
16 c174 42 369 156 645 378 l108 87 -103 26 c-182 48 -344 138 -473 263 l-69
67 36 -7 c81 -13 283 36 496 122 49 20 241 112 429 207 292 146 345 176 365
206 13 20 130 144 259 277 188 193 281 279 465 430 487 399 685 514 1000 580
43 9 113 36 180 71 60 30 125 62 145 69 51 19 100 10 131 -25z m212 -186 c60
-29 63 -38 80 -310 8 -137 13 -252 11 -254 -11 -11 -124 121 -166 194 l-47 81
-7 135 -7 136 39 16 c49 20 59 20 97 2z"/>
<path d="M4673 4890 c-39 -23 -48 -62 -39 -161 16 -161 40 -191 224 -283 167
-83 192 -93 192 -75 0 19 -323 539 -335 539 -5 0 -24 -9 -42 -20z"/>
<path d="M4464 3800 c-38 -15 -36 -29 6 -41 29 -9 105 -70 292 -237 139 -123
264 -234 277 -246 13 -11 -17 30 -66 92 -50 62 -124 161 -164 219 -85 124
-132 174 -188 203 -42 21 -118 26 -157 10z"/>
<path d="M5870 3168 c-11 -12 -27 -45 -36 -73 -16 -51 -16 -51 11 -105 15 -30
33 -70 40 -90 l13 -35 10 25 c5 14 17 68 27 121 16 82 16 102 5 128 -19 46
-44 57 -70 29z"/>
</g>
</svg>
